<svg xmlns="http://www.w3.org/2000/svg" viewBox="0 0 822.17 529.08"><defs><style>.cls-1{fill:#fff;}.cls-2{fill:#174290;}.cls-2,.cls-3{fill-rule:evenodd;}.cls-3{fill:#98a1d2;}</style></defs><title>shapes</title><g id="Capa_2" data-name="Capa 2"><g id="Capa_1-2" data-name="Capa 1"><rect class="cls-1" width="822.17" height="529.08"/><path class="cls-2" d="M251.3,224.26c.93,22.55,8,46.21,16.75,63.42,10.14,19.94,26.74,41.34,45,54.7,118.14,86.3,264.72-5.74,257.67-134.73A158.18,158.18,0,0,0,554,144c-4.85-9.5-17.67-29.48-24.53-35.76a136.25,136.25,0,0,1-9.79-9.51c-2.89-3.27-7.39-6.6-10.87-9.27-4.05-3.11-7.4-5.53-11.73-8.31-46.64-30-108.08-33.31-157.68-8.18-16.76,8.5-39,24.91-50.16,39.52-1.58,2.08-3,3.37-4.61,5.42-22.85,28.37-34.87,68.34-33.31,106.38m291.83-24.83.88,2-1.56-1.31c-4.47-1.68-11.8-6.7-16.69-9.45-13-7.33-113-66.75-115.16-66.42-1.62.26-59.56,34.61-65.79,38.34-11.28,6.74-21.87,13.06-33.13,19.42-6.42,3.64-29.05,17.69-33.1,19.14,1.91-33.75,25.91-69.91,42.18-83.43,11.1-9.23,21.85-17.74,38.13-24.47C392.52,79.36,429,78.81,462.76,93c27.59,11.62,51.43,32.57,65.62,59.54C534.11,163.46,543.32,185.12,543.13,199.43Zm-263.8,36.42c2.17-1.9,5.45-3.42,7.87-4.86l123.89-71.82,99.21,57.07c10.58,6.35,21.31,12.92,32.5,18.84,0,8.28-6.24,28.85-10.12,35.17L411.1,200.05c-2.89,0-108.17,63.46-121.32,70.47C285.81,266.22,279.63,243.24,279.33,235.85Zm25.53,60c7.09-2.4,102.94-61,106.23-61,1.54,0,68.13,39.2,79.21,45.55l26.87,15.8c-1.09,2.56-2.38,3.32-4,5.52-1.88,2.59-2.61,2.87-4.81,5.22-41.82,44.6-105.52,55.42-160.83,26.5-11.68-6.11-31-21.35-38.29-31.2Z"/><path class="cls-2" d="M237.1,472.51c49.1.08,48.48,3.92,48.48-21.77,0-13.31,1.12-20.93-13.87-20.89-11.45,0-23-.15-34.6,0ZM248,440.37c4-.36,24.22-.88,26.37.6,1.35,1.3.95,2.3.93,4.88,0,3,1,14.14-.95,15.75-2.35,1.52-22.3,1-26.33.58ZM624,464.8c1.2,6.65,7.49,7.89,15,8,7,.07,15.58.44,22.39-.21,8.14-.78,11.11-3.71,11.18-12.07.18-22.88,3.53-30.47-15.16-30.92-7.22-.17-15.55-.36-22.72.21-7.8.62-11,4.19-11,12.3C623.7,447.74,623.09,459.86,624,464.8Zm10.69-24c3.09-1.43,19.56-1,24.35-.77s3.18,4.63,3.18,9.09c0,3.41.91,9.29-.52,11.9-1.79,2.22-24.94,1.18-27,.6C633.78,458.34,633.76,444,634.67,440.8Zm-442.33,24c.79-3.44.19-18,.21-22.73,0-7.76-2.7-11.58-10.19-12.25a221.25,221.25,0,0,0-23.19-.26c-5.18.13-13.66.31-15.15,7.71-.91,4.53-.33,17.85-.29,23.21.06,8.41,3,11.32,10.86,12.06,7,.67,15.82.31,23,.23C185.05,472.68,190.82,471.49,192.34,464.8Zm-37.6-3.05c-1-3.4-.44-8.61-.45-12.63,0-4.5-1.45-8.74,3.26-9.07,4.32-.3,21-.6,24.1.6.88,2.32,1,17.58.24,20.26C179.14,463.37,159.34,462.58,154.74,461.75Zm260.61,10.84c11.47-.58,23.82,0,35.41-.08,14.66-.14,12.94-9.2,12.94-21.77,0-27.4-2.45-19.46-48-20.93C414.33,435.2,415.41,464.65,415.35,472.59Zm117.16-7.24,15.62,0c8.07,0,6.79-.82,8.9,3.54a30.52,30.52,0,0,0,1.91,3.63l12.57.13c-.91-3.68-19.13-41.09-20.24-42.78-14.63.25-14.3-1.12-16.19,3l-1.2,2.59-7.49,15.76c-3.35,7.14-6.89,14.4-10.27,21.26l13-.05Zm4.64-9.32c.34-2.31,5.75-13.13,6.84-14.86,1.18,2.09,6.54,13.11,6.77,14.87ZM197.57,472.51l36.79-.06-.12-10.28-25,0-.15-32.3-11.52-.05Zm104-32.32c6.87-1.51,23.69,1.12,29.28-.62l0-9.69-40.81,0-.06,42.66,40.93.08V462.5l-28.61,0c-1.28-.64-.61-5.26-.64-7L329,455.5l0-8.62-27.38-.11ZM387.1,472.3c1.27-1.2.59,1.55.91-2.05l-.26-40.52-11.22,0,0,31.29c-3-4-20.89-28.72-21.79-31.19l-19.36-.06v42.59l11-.11V440.9c3.62,3.75,18.51,26.76,22.76,31.45Zm114.56-42.1c-2-1-30.16-1.05-33.89-.35-.72,3.35-.26,25.72-.27,32.25l.58,10.43,11.26-.19.14-31.75c5.31.07,18.36-1.26,21.42,1.28,5.61,10.41-12.52,7-19.62,7.47.52,1.25,12.25,13.08,13.9,14.86,10.08,10.88,6.2,8.06,20.74,8.36-.88-2-.23-.95-1.82-2.43l-5.61-5.72c-2.58-2.42-4.91-4.61-7.29-7,7-.9,9.95-1.81,11.05-9,.85-5.64.51-13.89-3.33-16.1A10.53,10.53,0,0,0,501.66,430.2Zm-75.17,32.06,0-21.86,25.54.1c1.85.92,1.53,1.41,1.52,4.25,0,3.71.58,15.53-.72,16.81C450.12,463.12,430.82,462.43,426.49,462.26ZM139.78,446.9c-2-1-22.94-.44-24.19-.26a14.58,14.58,0,0,0,0,8.28l13.84,0-.17,5.25c-.8,1.87-.25,1.87-5.74,1.83-2.35,0-4.7,0-7,0-16.61,0-13.45,3-13.57-16.09,0-3.87.36-3.36.41-4a.78.78,0,0,1,.17-.4c1.56-2.07,31.66-1.06,36.25-1.08l-.25-10.51c-7.2-.15-34.49-.81-39.5.55-6,1.62-7.35,6.36-7.35,13.28,0,10.68-2.16,21.83,3.82,26.5,4.58,3.59,22.31,2.53,28.14,2.37C142.65,472.09,139.71,466,139.78,446.9Zm455.88,0-.28,8,13.62.33.2,5c-.2,1.29,0,1.26-1.72,1.68l-10.67.12c-2,0-10.95.34-12.62-.32-2.71-1.06-1.74-16-1.32-19,1.27-3.24,4-2.23,8-2.22H619.6l-.24-10.54H583.83c-12.33.46-11.27,10-11.27,19.8,0,22.54-1.92,23.54,30.2,23,8.55-.15,16.31-.52,16.82-9.29,1.08-2.3.68-14.94.28-16.71Zm92.87-5.65,1.38,1.29c.24.27.51.66.74,1,.41.55.78,1.09,1.32,1.89l19,27,19,.08-.27-42.58-10.73,0-.12,31.58-22.59-31.55-18.82,0,0,42.49,11-.25Z"/><polygon class="cls-3" points="523.29 421.42 524.25 422.22 523.71 420.99 523.29 421.42"/></g></g></svg>