<?xml version="1.0" encoding="utf-8"?>
<!-- Generator: Adobe Illustrator 22.0.1, SVG Export Plug-In . SVG Version: 6.00 Build 0)  -->
<svg version="1.1" id="Capa_1" xmlns="http://www.w3.org/2000/svg" xmlns:xlink="http://www.w3.org/1999/xlink" x="0px" y="0px"
	 viewBox="0 0 550.5 487.6" style="enable-background:new 0 0 550.5 487.6;" xml:space="preserve">
<style type="text/css">
	.st0{fill:#FFDE7C;}
	.st1{fill:#174290;}
	.st2{fill:#E6E9EF;}
	.st3{fill:#E9EEF9;}
	.st4{fill:#FED0B8;}
	.st5{fill:#344A7F;}
	.st6{fill:#8DA6D6;}
	.st7{fill:#FFFFFF;}
	.st8{fill:#FEB3A7;}
	.st9{fill:#0F265C;}
	.st10{fill:#65B32E;}
</style>
<g>
	<circle class="st0" cx="170" cy="170" r="170"/>
	<path class="st1" d="M20.9,177.6c0.9,21,7.5,43.1,15.6,59.2c9.5,18.6,24.9,38.6,42,51c110.2,80.5,247-5.4,240.4-125.7
		c-1-20.7-6.3-40.9-15.6-59.4c-4.5-8.9-16.5-27.5-22.9-33.4c-3.2-2.8-6.2-5.8-9.1-8.9c-2.7-3.1-6.9-6.2-10.1-8.6
		c-3.8-2.9-6.9-5.2-10.9-7.8c-43.5-28-100.8-31.1-147.1-7.6c-15.6,7.9-36.4,23.2-46.8,36.9c-1.5,1.9-2.8,3.1-4.3,5.1
		C30.7,104.8,19.5,142.1,20.9,177.6 M293.2,154.5l0.8,1.9l-1.5-1.2c-4.2-1.6-11-6.3-15.6-8.8c-12.1-6.8-105.4-62.3-107.4-62
		c-1.5,0.2-55.6,32.3-61.4,35.8c-10.5,6.3-20.4,12.2-30.9,18.1c-6,3.4-27.1,16.5-30.9,17.9c1.8-31.5,24.2-65.2,39.4-77.8
		c10.4-8.6,20.4-16.6,35.6-22.8c31.4-13,65.4-13.5,96.9-0.3c25.7,10.8,48,30.4,61.2,55.5C284.8,120.9,293.4,141.1,293.2,154.5
		L293.2,154.5z M47.1,188.4c2-1.8,5.1-3.2,7.3-4.5l115.6-67l92.6,53.2c9.9,5.9,19.9,12.1,30.3,17.6c0,7.7-5.8,26.9-9.4,32.8L170,155
		c-2.7,0-100.9,59.2-113.2,65.7C53.1,216.7,47.4,195.3,47.1,188.4L47.1,188.4z M70.9,244.4c6.6-2.2,96-56.9,99.1-56.9
		c1.4,0,63.6,36.6,73.9,42.5l25.1,14.7c-1,2.4-2.2,3.1-3.7,5.1c-1.8,2.4-2.4,2.7-4.5,4.9c-39,41.6-98.4,51.7-150,24.7
		c-10.9-5.7-28.9-19.9-35.7-29.1L70.9,244.4z"/>
	<path class="st2" d="M302.3,360.9c-0.4,0-0.7,0.4-1.4,0.4c-0.4,0-0.7-0.4-1.4-0.4H302.3z"/>
	<path class="st3" d="M480.2,396.6c-41.8,57.2-108.4,91-179.3,91c-73.5,0-138.7-35.7-179.3-91c31.5-33.6,74.2-51.5,110-60.6
		c-3.2,25.6,10.2,59.9,10.5,58.8c13.3-30.8,58.5-33.6,58.5-33.6s45.2,2.5,58.8,33.6c0.4,0.7,13.7-33.3,10.5-58.8
		C405.9,345.1,448.7,363,480.2,396.6z"/>
	<path class="st4" d="M356.2,312.6L356.2,312.6c0,4.6-2.8,28.7-53.9,48.3h-2.8c-51.1-19.6-53.9-43.8-53.9-48.3l0,0
		c0.3-9.2,2.5-18.2,6.3-26.6c14,15.8,30.8,26.3,49,26.3c17.9,0,35-10.2,49-26.3C353.8,294.3,356.2,303.5,356.2,312.6z"/>
	<path class="st5" d="M331.3,368.9l-11.2,22.4h-38.5l-11.2-22.4c9.7-4.1,20-6.7,30.5-7.7C311.4,362.2,321.7,364.8,331.3,368.9z"/>
	<path class="st6" d="M269.7,485.5c10.4,1.4,21,2.1,31.5,2.1c10.5,0,21.1-0.7,31.5-2.1l-12.3-93.8H282L269.7,485.5z"/>
	<path class="st7" d="M356.2,311.9c0,0,2.5,28-55.3,49.4c0,0,45.2,2.5,58.8,33.6C360.1,396.2,386.4,328.3,356.2,311.9z"/>
	<path class="st7" d="M245.6,311.9c-29.8,16.5-3.9,84-3.2,83c13.3-30.8,58.8-33.6,58.8-33.6C243.1,339.9,245.6,311.9,245.6,311.9z"
		/>
	<path class="st8" d="M352.7,292.9c-14.7,15.8-32.2,25.9-51.8,25.9c-19.6,0-37.1-10.2-51.8-25.9c0.7-2.4,1.7-4.8,2.8-7
		c14,15.8,30.8,26.3,49,26.3s35-10.2,49-26.3C351.1,288.2,352,290.5,352.7,292.9z"/>
	<path class="st4" d="M396.5,239.3c-7.4,12.3-18.6,19.6-27,18.2c-16.8,31.2-41.3,54.3-68.6,54.3s-51.8-23.5-68.6-54.3
		c-8.4,1.1-19.6-6-27-18.2c-8.8-14.4-9.1-30.1-0.7-35.4c2-1.2,4.4-1.7,6.7-1.4c3.2,8.4,7.7,16.2,13.3,23.1
		c-8.1-44.5,24.9-49.4,19.3-92.1c0,0,20.7,45.9,79.8,13.7l-4.6,8.8c82.6-18.6,55,78.8,54.3,81.2c8.3-10.3,14.7-22.1,18.9-34.7
		c1.5,0.1,2.9,0.6,4.2,1.4C405.6,208.9,405.2,225,396.5,239.3z"/>
	<path class="st9" d="M348.5,87.4c6.7-0.7,17.5,5.3,17.5,5.3c-29.8-34-78.4-12.3-78.4-12.3c16.5-14,31.2-12.6,31.2-12.6
		c-69.7-10.5-81.6,31.2-81.6,31.2C234,94,234,87,234.4,83.5c-4.9,8.4,0.4,25.2,0.4,25.2c-4.9-12.3-22.1-10.2-22.1-10.2
		c14.7,2.5,17.2,11.6,17.2,11.6c-36.8,13.7-30.5,51.8-30.5,51.8l8.8-10.5c-10.9,41.7,16.8,73.9,16.8,73.9
		c-8.1-44.5,24.9-49.4,19.3-92.1c0,0,20.7,45.9,79.8,13.7l-4.6,8.8c83.7-18.9,54.3,81.6,54.3,81.6c29.8-37.8,25.2-76.7,25.2-76.7
		l3.5,14C411.9,111.5,348.5,87.4,348.5,87.4z"/>
</g>
<title>newUser</title>
<polygon class="st10" points="550.5,373.1 550.5,410.4 474.7,410.4 474.7,486.1 437.5,486.1 437.5,410.4 361.7,410.4 361.7,373.1 
	437.5,373.1 437.5,297.3 474.7,297.3 474.7,373.1 "/>
</svg>
