<?xml version="1.0" encoding="utf-8"?>
<!-- Generator: Adobe Illustrator 22.0.1, SVG Export Plug-In . SVG Version: 6.00 Build 0)  -->
<svg version="1.1" id="Capa_1" xmlns="http://www.w3.org/2000/svg" xmlns:xlink="http://www.w3.org/1999/xlink" x="0px" y="0px"
	 viewBox="0 0 512 512" style="enable-background:new 0 0 512 512;" xml:space="preserve">
<style type="text/css">
	.st0{fill:#174290;}
	.st1{fill:#FF8E31;}
	.st2{fill:#FFFFFF;}
</style>
<title>refaction</title>
<circle class="st0" cx="256" cy="256" r="256"/>
<path class="st1" d="M290.9,146.4l-15-15l-7.9,3.9l-20.1-20.1l-20.4-5.5l-9.1,13.6l0.1,0.1c-2.4-0.2-4.8-0.3-7.2-0.3
	c-0.9,0-1.9,0-2.8,0L195,109.7l-20.4,5.5l-1.1,16.4c-4.3,2-8.4,4.4-12.3,7.1l-14.7-7.2l-14.9,15l7.2,14.7c-2.7,3.9-5.1,8.1-7.1,12.4
	l-16.3,1.1l-5.5,20.4l13.4,13.4c0,0.9-0.1,1.9-0.1,2.8c0,2.4,0.1,4.8,0.3,7.2h-0.1l-13.6,9.1l5.4,20.4l20.1,20.1l-3.9,7.9l0,0
	l14.9,14.9h0.1l203.3,203.3c66.1-26.1,118.4-78.4,144.5-144.4L290.9,146.4z"/>
<path class="st2" d="M290.9,146.4l-15-14.9l-14.7,7.2c-3.9-2.7-8-5.1-12.3-7.1l-1.1-16.3l-20.4-5.4l-9.1,13.6h0.1
	c-2.4-0.2-4.8-0.3-7.2-0.3s-4.8,0.1-7.2,0.3h0.1l-9.1-13.6l-20.4,5.4l-1.1,16.4c-4.3,2-8.4,4.4-12.3,7.1l-14.7-7.2l-14.9,14.9
	l7.2,14.7c-2.7,3.9-5.1,8.1-7.1,12.4l-16.3,1.1l-5.5,20.4l13.6,9.1c-0.1,2.4-0.3,4.8-0.3,7.1s0.1,4.8,0.3,7.2l-0.1-0.1l-13.6,9.1
	l5.5,20.4l16.4,1.1c2,4.3,4.4,8.4,7.1,12.3l-7.2,14.7l14.9,15l14.7-7.2c3.9,2.7,8,5.1,12.3,7.1l1.1,16.3l20.4,5.5l9-13.7
	c2.4,0.1,4.8,0.3,7.1,0.2s4.8-0.1,7.2-0.3l9,13.6l20.4-5.5l1.1-16.3c4.3-2.1,8.4-4.5,12.3-7.2l14.7,7.2l15-15l-7.2-14.7
	c2.7-3.9,5.1-8,7.1-12.3l16.4-1.1l5.5-20.4l-13.6-9.1v0.1c0.2-2.4,0.3-4.8,0.3-7.2s-0.1-4.8-0.2-7.1l13.6-9.1l-5.5-20.4l-16.4-1.1
	c-2-4.3-4.4-8.4-7.1-12.3L290.9,146.4z M257.4,257.4c-25.5,25.5-67,25.5-92.5,0s-25.5-67,0-92.5s66.9-25.5,92.5,0
	S283,231.8,257.4,257.4L257.4,257.4L257.4,257.4z"/>
<polygon class="st0" points="314.5,345.1 345.1,314.5 246,215.3 215.3,246 "/>
<path class="st0" d="M199,166.3l35.1,35.1l-6.9,25.8l-25.8,6.9L166.3,199c-8.4,26.4,6.3,54.6,32.7,62.9c26.4,8.4,54.6-6.3,62.9-32.7
	c8.4-26.4-6.3-54.6-32.7-62.9C219.4,163.2,208.8,163.2,199,166.3L199,166.3z"/>
<path class="st0" d="M320.8,320.8c-14.8,14.8-15,38.6-0.4,53.2s38.4,14.4,53.2-0.4s15-38.6,0.4-53.2S335.6,306,320.8,320.8z
	 M373,336.5l-4,10.7l4,10.7l-10.4,4.7l-4.7,10.4l-10.7-4l-10.7,4l-4.7-10.4l-10.4-4.7l4-10.7l-4-10.7l10.4-4.7l4.7-10.4l10.7,4
	l10.7-4l4.7,10.4L373,336.5z"/>
<polygon class="st2" points="225.4,200.1 210.8,185.4 190.8,190.8 185.4,210.8 200.1,225.4 220,220 "/>
</svg>
