<svg xmlns="http://www.w3.org/2000/svg" viewBox="0 0 558.87 444.35"><defs><style>.cls-1{fill:#c9e8fb;}.cls-2{fill:#0f265c;}.cls-3{fill:#8da6d6;}.cls-4{fill:#bcdcf5;}.cls-5{fill:#344a7f;}.cls-6{fill:#fff042;}.cls-7{fill:#e63323;}</style></defs><title>truck</title><g id="Capa_2" data-name="Capa 2"><g id="Capa_1-2" data-name="Capa 1"><path class="cls-1" d="M339,169.49A169.49,169.49,0,1,1,169.49,0,169.49,169.49,0,0,1,339,169.49Z"/><path class="cls-2" d="M128.27,82.45H45.81a9.16,9.16,0,0,1,0-18.32h82.46a9.16,9.16,0,0,1,0,18.32Z"/><path class="cls-2" d="M229,109.94H100.78a9.16,9.16,0,0,1,0-18.32H229a9.16,9.16,0,0,1,0,18.32Z"/><path class="cls-3" d="M48.49,375.63h477.7a23.52,23.52,0,0,0,23.52-23.52V303.3l-167.49-140A72,72,0,0,0,336,146.59H82A43.09,43.09,0,0,0,39.13,185L21.59,345.65a27.06,27.06,0,0,0,26.9,30Z"/><path class="cls-2" d="M526.19,384.79H48.48a36.22,36.22,0,0,1-36-40.13L30,184a52.18,52.18,0,0,1,52-46.58H336a81.38,81.38,0,0,1,52.07,18.88l167.49,140a9.2,9.2,0,0,1,3.29,7v48.82a32.71,32.71,0,0,1-32.68,32.67ZM82,155.75A33.88,33.88,0,0,0,48.24,186L30.7,346.65a17.89,17.89,0,0,0,17.78,19.82H526.19a14.37,14.37,0,0,0,14.35-14.35V307.59L376.33,170.38A63,63,0,0,0,336,155.75Z"/><path class="cls-2" d="M547.37,356.85H22.31a9.16,9.16,0,1,1,0-18.32H547.37a9.16,9.16,0,0,1,0,18.32Z"/><path class="cls-2" d="M229,384.79a9.16,9.16,0,0,1-9.16-9.16V183.24a9.16,9.16,0,1,1,18.32,0V375.63a9.15,9.15,0,0,1-9.16,9.16Z"/><path class="cls-2" d="M357.3,192.4H82.46a9.17,9.17,0,0,1,0-18.33H357.3a9.17,9.17,0,1,1,0,18.33Z"/><path class="cls-2" d="M348.15,229H82.46a9.16,9.16,0,1,1,0-18.32H348.15a9.16,9.16,0,0,1,0,18.32Z"/><path class="cls-2" d="M193.37,294.3H62.08a9.16,9.16,0,0,1,0-18.32H193.36a9.16,9.16,0,0,1,0,18.32Z"/><path class="cls-4" d="M384.79,219.89h24.94l94.17,82.44H428.77l-44-19Z"/><path class="cls-2" d="M503.9,311.5H428.76a9.29,9.29,0,0,1-3.63-.75l-44-19a9.15,9.15,0,0,1-5.53-8.4V219.89a9.16,9.16,0,0,1,9.16-9.17h24.95a9.21,9.21,0,0,1,6,2.27l94.16,82.46a9.16,9.16,0,0,1-6,16.05Zm-73.24-18.32h48.86L406.29,229H394v48.24Z"/><path class="cls-2" d="M384.79,348.14a9.15,9.15,0,0,1-9.16-9.16V247.37a9.17,9.17,0,0,1,18.33,0V339a9.15,9.15,0,0,1-9.17,9.16Z"/><path class="cls-5" d="M531,388.3a46.89,46.89,0,1,1-46.89-46.89A46.88,46.88,0,0,1,531,388.3Z"/><path class="cls-2" d="M484.06,444.35a56.05,56.05,0,1,1,56.05-56.05,56.11,56.11,0,0,1-56.05,56.05Zm0-93.78a37.73,37.73,0,1,0,37.73,37.73,37.77,37.77,0,0,0-37.73-37.73Z"/><path class="cls-3" d="M501.43,388.3a17.37,17.37,0,1,1-17.37-17.38,17.36,17.36,0,0,1,17.37,17.38Z"/><path class="cls-2" d="M484.06,414.83A26.53,26.53,0,1,1,510.6,388.3a26.55,26.55,0,0,1-26.54,26.53Zm0-34.74a8.21,8.21,0,1,0,8.22,8.21,8.21,8.21,0,0,0-8.22-8.21Z"/><path class="cls-5" d="M155.86,388.3A46.89,46.89,0,1,1,109,341.41a46.88,46.88,0,0,1,46.89,46.89Z"/><path class="cls-2" d="M109,444.35A56.05,56.05,0,1,1,165,388.3,56.11,56.11,0,0,1,109,444.35Zm0-93.78A37.73,37.73,0,1,0,146.7,388.3,37.78,37.78,0,0,0,109,350.57Z"/><path class="cls-3" d="M126.34,388.3A17.37,17.37,0,1,1,109,370.92a17.37,17.37,0,0,1,17.37,17.38Z"/><path class="cls-2" d="M109,414.83A26.53,26.53,0,1,1,135.5,388.3,26.56,26.56,0,0,1,109,414.83Zm0-34.74a8.21,8.21,0,1,0,8.21,8.21,8.22,8.22,0,0,0-8.21-8.21Z"/><path class="cls-6" d="M549.71,311.5H522.22a9.16,9.16,0,1,1,0-18.32h27.49a9.16,9.16,0,1,1,0,18.32Z"/><path class="cls-7" d="M55,329.82H27.49a9.16,9.16,0,1,1,0-18.32H55a9.16,9.16,0,1,1,0,18.32Z"/></g></g></svg>