<svg xmlns="http://www.w3.org/2000/svg" viewBox="0 0 200 146.07"><defs><style>.cls-1{fill:#fff;}</style></defs><title>crane2</title><g id="Capa_2" data-name="Capa 2"><g id="Capa_1-2" data-name="Capa 1"><path class="cls-1" d="M177.58,29.84c-1.63-4.13-5.79-6.63-10.75-6.63H118.65a11.34,11.34,0,0,0-11.59,11.63V64.72L83,2.46C82.14.79,81.31,0,79.68,0H15.75a3.9,3.9,0,0,0-4.16,4.13v39A15.2,15.2,0,0,0,0,58.1a15.76,15.76,0,0,0,31.51,0,3.91,3.91,0,0,0-4.13-4.17,3.94,3.94,0,0,0-4.17,4.17,7.46,7.46,0,1,1-7.46-7.51,3.92,3.92,0,0,0,4.17-4.12V30.67H61.39L80.48,81.31H11.59A11.34,11.34,0,0,0,0,92.94V112a11.34,11.34,0,0,0,11.59,11.63v.83a22,22,0,0,0,21.58,21.59,22,22,0,0,0,21.59-21.59v-.83H66.39a3.79,3.79,0,0,0,4-3.33,6.11,6.11,0,0,0,.08-.84,3.86,3.86,0,0,0-4.12-4.12H52.26a20.85,20.85,0,0,0-38.17,0H12.42a3.93,3.93,0,0,1-4.13-4.17V92.1a3.93,3.93,0,0,1,4.13-4.17H107.9v27.43h-5.84a3.86,3.86,0,0,0-4.12,4.12,6.11,6.11,0,0,0,.08.84,3.79,3.79,0,0,0,4,3.33h29.05v.83a21.59,21.59,0,0,0,43.18,0v-.83h14.08A11.35,11.35,0,0,0,200,112V72.18Zm-157,90.48A14,14,0,0,1,33.17,112a13,13,0,0,1,12.34,8.3,13.29,13.29,0,0,1,1,5,13.08,13.08,0,0,1-13.3,13.25,13.07,13.07,0,0,1-13.25-13.25A10.16,10.16,0,0,1,20.63,120.32ZM88.81,82.14,67.22,26.55c-.83-1.67-1.66-2.5-3.33-2.5h-44V8.29H78l28.21,73.85Zm49-50.63h29.05a4.32,4.32,0,0,1,3.29,1.66l17.5,35,.75,1.54H137.78ZM151.87,139.4a13.11,13.11,0,0,1-13.3-13.25,12.44,12.44,0,0,1,1.46-5.83,13.78,13.78,0,0,1,11.84-7.46,13.13,13.13,0,0,1,12,7.46,13.51,13.51,0,0,1,1.29,5.83C166,133.61,159.32,139.4,151.87,139.4Zm40.67-45.63h-7.46a4.15,4.15,0,1,0,0,8.29h7.46v11.63a5.58,5.58,0,0,1-5,3.29H171.79a20.88,20.88,0,0,0-38.18,0H116.19V35.67a3.92,3.92,0,0,1,4.13-4.16h11.62V73.85A3.9,3.9,0,0,0,136.11,78h56.43ZM33.19,131.13a5.81,5.81,0,1,0-5.81-5.81A5.67,5.67,0,0,0,33.19,131.13Zm118.68-11.62a5.81,5.81,0,1,0,5.81,5.81A5.67,5.67,0,0,0,151.87,119.51ZM88,121.17a4.15,4.15,0,1,1-8.3,0,4.68,4.68,0,0,1,.09-.83,3.8,3.8,0,0,1,4-3.34,3.84,3.84,0,0,1,4.08,3.34A5.85,5.85,0,0,1,88,121.17Z"/></g></g></svg>