<svg xmlns="http://www.w3.org/2000/svg" viewBox="0 0 47.99 35.05"><defs><style>.cls-1{fill:#fff;}</style></defs><title>crane</title><g id="Capa_2" data-name="Capa 2"><g id="Capa_1-2" data-name="Capa 1"><path class="cls-1" d="M42.61,7.16A2.66,2.66,0,0,0,40,5.57H28.47a2.72,2.72,0,0,0-2.78,2.79v7.17L19.91.59c-.2-.4-.4-.59-.79-.59H3.78a.94.94,0,0,0-1,1v9.36A3.65,3.65,0,0,0,0,13.94a3.78,3.78,0,0,0,7.56,0,.94.94,0,0,0-1-1,.94.94,0,0,0-1,1,1.79,1.79,0,1,1-1.79-1.8.94.94,0,0,0,1-1V7.36h10l4.58,12.15H2.78A2.72,2.72,0,0,0,0,22.3v4.58a2.72,2.72,0,0,0,2.78,2.79v.2A5.27,5.27,0,0,0,8,35.05a5.27,5.27,0,0,0,5.18-5.18v-.2h2.79a.91.91,0,0,0,1-.8,1.36,1.36,0,0,0,0-.2.93.93,0,0,0-1-1H12.54a5,5,0,0,0-9.16,0H3a.94.94,0,0,1-1-1V22.1a.94.94,0,0,1,1-1H25.89v6.58h-1.4a.93.93,0,0,0-1,1,1.36,1.36,0,0,0,0,.2.91.91,0,0,0,1,.8h7v.2a5.18,5.18,0,1,0,10.36,0v-.2H45.2A2.72,2.72,0,0,0,48,26.88V17.32ZM5,28.87a3.35,3.35,0,0,1,3-2,3.12,3.12,0,0,1,3,2,3.19,3.19,0,1,1-6.14,1.2A2.46,2.46,0,0,1,5,28.87Zm16.36-9.16L16.13,6.37c-.2-.4-.4-.6-.8-.6H4.78V2H18.72l6.77,17.72ZM33.06,7.56h7a1,1,0,0,1,.79.4L45,16.35l.18.37H33.06Zm3.38,25.89a3.15,3.15,0,0,1-3.19-3.18,3,3,0,0,1,.35-1.4,3.31,3.31,0,0,1,2.84-1.79,3.15,3.15,0,0,1,2.88,1.79,3.23,3.23,0,0,1,.31,1.4A3,3,0,0,1,36.44,33.45Zm9.76-11H44.41a1,1,0,1,0,0,2H46.2v2.79a1.34,1.34,0,0,1-1.2.79H41.22a5,5,0,0,0-9.16,0H27.88V8.56a.94.94,0,0,1,1-1h2.79V17.72a.94.94,0,0,0,1,1H46.2ZM8,31.46a1.39,1.39,0,1,0-1.39-1.39A1.36,1.36,0,0,0,8,31.46Zm28.48-2.78a1.39,1.39,0,1,0,1.39,1.39A1.35,1.35,0,0,0,36.44,28.68Zm-15.33.4a1,1,0,1,1-2,0,1.36,1.36,0,0,1,0-.21.91.91,0,0,1,1-.79.92.92,0,0,1,1,.79A1.36,1.36,0,0,1,21.11,29.08Z"/></g></g></svg>