<?xml version="1.0" encoding="utf-8"?>
<!-- Generator: Adobe Illustrator 22.0.1, SVG Export Plug-In . SVG Version: 6.00 Build 0)  -->
<svg version="1.1" id="Capa_1" xmlns="http://www.w3.org/2000/svg" xmlns:xlink="http://www.w3.org/1999/xlink" x="0px" y="0px"
	 viewBox="0 0 64 64" style="enable-background:new 0 0 64 64;" xml:space="preserve">
<style type="text/css">
	.st0{fill:#DEECF1;}
	.st1{fill:#FFDA2D;}
	.st2{fill:#7C8388;}
	.st3{fill:#FFFFFF;}
	.st4{fill:#174290;}
</style>
<g>
	<path class="st0" d="M21.4,26.5c-0.5,0-0.9,0.4-0.9,0.9v2.3c0,0.5,0.4,0.9,0.9,0.9h12v-4.2C33.1,26.5,21.5,26.5,21.4,26.5z"/>
	<path class="st1" d="M36.2,19.4h-1.9c-0.5,0-0.9,0.4-0.9,0.9v10.3h9.2c0.5,0,0.9-0.4,0.9-0.9c0-0.9,0-3.6,0-4.7L36.2,19.4z"/>
	<path class="st0" d="M43.5,25L43.5,25h-7.3v-5.6h3.9c0.4,0,0.7,0.2,0.8,0.5L43.5,25z"/>
	<g>
		<path class="st2" d="M38.3,29.2c1.2,0,2.1,0.9,2.1,2.1c0,1.2-0.9,2.1-2.1,2.1s-2.1-0.9-2.1-2.1C36.2,30.1,37.2,29.2,38.3,29.2z"/>
		<path class="st2" d="M29.6,16.6l3.8,9.8h-3l-2.7-7h-5.8v-2.8C21.9,16.6,29.6,16.6,29.6,16.6z"/>
		<path class="st2" d="M24,29.2c1.2,0,2.1,0.9,2.1,2.1c0,1.2-0.9,2.1-2.1,2.1s-2.1-0.9-2.1-2.1C21.9,30.1,22.8,29.2,24,29.2z"/>
	</g>
	<path d="M41.4,19.7c-0.2-0.5-0.7-0.8-1.3-0.8c-1.2,0-4.4,0-5.8,0c-0.8,0-1.4,0.6-1.4,1.4v3.6L30,16.4c-0.1-0.2-0.2-0.3-0.4-0.3
		h-7.7c-0.3,0-0.5,0.2-0.5,0.5v4.7c-0.8,0.2-1.4,0.9-1.4,1.8c0,1,0.8,1.9,1.9,1.9c1,0,1.9-0.8,1.9-1.9c0-0.3-0.2-0.5-0.5-0.5
		s-0.5,0.2-0.5,0.5c0,0.5-0.4,0.9-0.9,0.9S21,23.6,21,23.1s0.4-0.9,0.9-0.9c0.3,0,0.5-0.2,0.5-0.5v-1.9h5l2.3,6.1h-8.3
		c-0.8,0-1.4,0.6-1.4,1.4v2.3c0,0.8,0.6,1.4,1.4,1.4l0,0v0.1c0,1.4,1.2,2.6,2.6,2.6s2.6-1.2,2.6-2.6V31H28c0.3,0,0.5-0.2,0.5-0.5
		S28.3,30,28,30h-1.7c-0.4-0.9-1.3-1.5-2.3-1.5s-1.9,0.6-2.3,1.5h-0.2c-0.3,0-0.5-0.2-0.5-0.5v-2.3c0-0.3,0.2-0.5,0.5-0.5H33V30
		h-0.7c-0.3,0-0.5,0.2-0.5,0.5S32,31,32.3,31h3.5v0.1c0,1.4,1.2,2.6,2.6,2.6s2.6-1.2,2.6-2.6V31h1.7c0.8,0,1.4-0.6,1.4-1.4V25
		c0-0.1,0-0.1,0-0.2L41.4,19.7z M24,29.6c0.9,0,1.6,0.7,1.6,1.6c0,0.9-0.7,1.6-1.6,1.6s-1.6-0.7-1.6-1.6
		C22.3,30.4,23.1,29.6,24,29.6z M30.7,26l-2.6-6.7C28,19.1,27.9,19,27.7,19h-5.3v-1.9h7l3.4,8.9H30.7z M40.1,19.9L40.1,19.9
		c0.2,0,0.3,0.1,0.4,0.2l2.2,4.4h-6.1v-4.7h3.5V19.9z M38.3,32.9c-0.9,0-1.6-0.7-1.6-1.6s0.8-1.6,1.6-1.6c0.9,0,1.6,0.7,1.6,1.6
		C40,32.2,39.2,32.9,38.3,32.9z M42.6,30.2h-1.9c-0.4-0.9-1.3-1.5-2.3-1.5s-1.9,0.6-2.3,1.5H34c0-1.2,0-9.7,0-9.8
		c0-0.3,0.2-0.5,0.5-0.5h1.4V25c0,0.3,0.2,0.5,0.5,0.5h6.8v1.9h-0.9c-0.3,0-0.5,0.2-0.5,0.5s0.2,0.5,0.5,0.5h0.9v1.4
		C43.1,30,42.9,30.2,42.6,30.2z"/>
	<path d="M24,32c0.4,0,0.7-0.3,0.7-0.7s-0.3-0.7-0.7-0.7s-0.7,0.3-0.7,0.7S23.6,32,24,32z"/>
	<path d="M38.3,30.6c-0.4,0-0.7,0.3-0.7,0.7s0.3,0.7,0.7,0.7s0.7-0.3,0.7-0.7S38.7,30.6,38.3,30.6z"/>
	<path d="M30.6,30.7c0,0.3-0.2,0.5-0.5,0.5s-0.5-0.2-0.5-0.5s0.2-0.5,0.5-0.5S30.6,30.4,30.6,30.7z"/>
</g>
<path class="st3" d="M116.7,14.5c-0.4-1-1.4-1.6-2.6-1.6h-11.6c-1.6,0-2.8,1.2-2.8,2.8v7.2L94,8c-0.2-0.4-0.4-0.6-0.8-0.6H77.9
	c-0.6,0-1,0.4-1,1v9.4c-1.6,0.4-2.8,1.8-2.8,3.6c0,2,1.6,3.8,3.8,3.8c2,0,3.8-1.6,3.8-3.8c0-0.6-0.4-1-1-1s-1,0.4-1,1
	c0,1-0.8,1.8-1.8,1.8s-1.8-0.8-1.8-1.8c0-1,0.8-1.8,1.8-1.8c0.6,0,1-0.4,1-1v-3.8h9.9l4.6,12.2H76.9c-1.6,0-2.8,1.2-2.8,2.8v4.6
	c0,1.6,1.2,2.8,2.8,2.8v0.2c0,2.8,2.4,5.2,5.2,5.2c2.8,0,5.2-2.4,5.2-5.2V37H90c0.5,0,0.9-0.3,1-0.8c0-0.1,0-0.1,0-0.2
	c0-0.6-0.4-1-1-1h-3.4c-0.8-1.8-2.6-3-4.6-3s-3.8,1.2-4.6,3h-0.4c-0.6,0-1-0.4-1-1v-4.6c0-0.6,0.4-1,1-1H100v6.6h-1.4
	c-0.6,0-1,0.4-1,1c0,0.1,0,0.1,0,0.2c0.1,0.5,0.4,0.8,1,0.8h7v0.2c0,2.8,2.4,5.2,5.2,5.2c2.8,0,5.2-2.4,5.2-5.2V37h3.4
	c1.6,0,2.8-1.2,2.8-2.8v-9.2c0-0.2,0-0.2,0-0.4L116.7,14.5z M79.1,36.2c0.5-1.1,1.7-2,3-2c1.4,0,2.5,0.8,3,2
	c0.2,0.4,0.2,0.8,0.2,1.2c0,1.8-1.4,3.2-3.2,3.2c-1.8,0-3.2-1.4-3.2-3.2C78.8,37,78.9,36.6,79.1,36.2z M95.4,27.1l-5.2-13.3
	c-0.2-0.4-0.4-0.6-0.8-0.6H78.9V9.4h13.9l6.8,17.7H95.4z M107.2,14.9h7l0,0c0.4,0,0.6,0.2,0.8,0.4l4.2,8.4l0.2,0.4h-12.1V14.9z
	 M110.6,40.8c-1.8,0-3.2-1.4-3.2-3.2c0-0.5,0.1-1,0.3-1.4c0.6-1.1,1.7-1.8,2.8-1.8c1.3,0,2.4,0.7,2.9,1.8c0.2,0.4,0.3,0.9,0.3,1.4
	C114,39.4,112.3,40.8,110.6,40.8z M120.3,29.9h-1.8c-0.6,0-1,0.4-1,1c0,0.6,0.4,1,1,1h1.8v2.8c-0.2,0.4-0.6,0.8-1.2,0.8h-3.8
	c-0.8-1.8-2.6-3-4.6-3s-3.8,1.2-4.6,3H102V15.9c0-0.6,0.4-1,1-1h2.8v10.2c0,0.6,0.4,1,1,1h13.5V29.9z M82.1,38.8
	c0.8,0,1.4-0.6,1.4-1.4s-0.6-1.4-1.4-1.4s-1.4,0.6-1.4,1.4S81.3,38.8,82.1,38.8z M110.6,36.1c-0.8,0-1.4,0.6-1.4,1.4
	s0.6,1.4,1.4,1.4c0.8,0,1.4-0.6,1.4-1.4S111.4,36.1,110.6,36.1z M95.2,36.5c0,0.6-0.4,1-1,1c-0.6,0-1-0.4-1-1c0-0.1,0-0.1,0-0.2
	c0.1-0.5,0.4-0.8,1-0.8c0.5,0,0.9,0.3,1,0.8C95.2,36.3,95.2,36.4,95.2,36.5z"/>
<path class="st3" d="M362.5-18.3c-1.6-4.1-5.8-6.6-10.8-6.6h-48.2c-6.6,0-11.6,5-11.6,11.6v29.9l-24.1-62.3
	c-0.8-1.7-1.7-2.5-3.3-2.5h-63.9c-2.5,0-4.2,1.6-4.2,4.1v39c-6.6,1.7-11.6,7.5-11.6,15c0,8.3,6.6,15.8,15.8,15.8
	c8.3,0,15.8-6.6,15.8-15.8c0-2.5-1.6-4.2-4.1-4.2c-2.5,0-4.2,1.7-4.2,4.2c0,4.1-3.3,7.5-7.5,7.5c-4.2,0-7.5-3.3-7.5-7.5
	c0-4.2,3.3-7.5,7.5-7.5c2.5,0,4.2-1.7,4.2-4.1v-15.8h41.5l19.1,50.6h-68.9c-6.6,0-11.6,5-11.6,11.6v19.1c0,6.6,5,11.6,11.6,11.6v0.8
	c0,11.6,10,21.6,21.6,21.6c11.6,0,21.6-10,21.6-21.6v-0.8h11.6c2.2,0,3.8-1.3,4-3.3c0-0.3,0.1-0.5,0.1-0.8c0-2.5-1.6-4.1-4.1-4.1
	h-14.1c-3.3-7.5-10.8-12.5-19.1-12.5c-8.3,0-15.8,5-19.1,12.5h-1.7c-2.5,0-4.1-1.7-4.1-4.2V44c0-2.5,1.7-4.2,4.1-4.2h95.5v27.4H287
	c-2.5,0-4.1,1.6-4.1,4.1c0,0.3,0,0.5,0.1,0.8c0.3,2,1.8,3.3,4,3.3h29v0.8c0,11.6,10,21.6,21.6,21.6c11.6,0,21.6-10,21.6-21.6v-0.8
	h14.1c6.7,0,11.6-5,11.6-11.6V25.7c0-0.8,0-0.8,0-1.7L362.5-18.3z M205.6,72.2c1.9-4.6,7-8.3,12.5-8.3c5.7,0,10.5,3.4,12.3,8.3
	c0.6,1.5,1,3.2,1,5c0,7.5-5.8,13.3-13.3,13.3c-7.5,0-13.3-5.8-13.3-13.3C204.6,75.5,204.9,73.8,205.6,72.2z M273.7,34l-21.6-55.6
	c-0.8-1.7-1.7-2.5-3.3-2.5h-44v-15.8H263L291.2,34H273.7z M322.7-16.6h29l0,0c1.6,0,2.5,0.8,3.3,1.7l17.5,35l0.8,1.5h-50.6V-16.6z
	 M336.8,91.3c-7.5,0-13.3-5.8-13.3-13.3c0-2.1,0.5-4.1,1.5-5.8c2.3-4.5,7.1-7.5,11.8-7.5c5.4,0,9.9,3,12,7.5
	c0.8,1.8,1.3,3.7,1.3,5.8C350.9,85.5,344.3,91.3,336.8,91.3z M377.5,45.6H370c-2.5,0-4.2,1.7-4.2,4.1c0,2.5,1.7,4.2,4.2,4.2h7.5
	v11.6c-0.8,1.7-2.5,3.3-5,3.3h-15.8c-3.3-7.5-10.8-12.4-19.1-12.4c-8.3,0-15.8,5-19.1,12.4h-17.4v-81.3c0-2.5,1.7-4.2,4.1-4.2h11.6
	v42.3c0,2.5,1.7,4.1,4.2,4.1h56.4V45.6z M218.1,83c3.3,0,5.8-2.5,5.8-5.8s-2.5-5.8-5.8-5.8s-5.8,2.5-5.8,5.8S214.8,83,218.1,83z
	 M336.8,71.4c-3.3,0-5.8,2.5-5.8,5.8s2.5,5.8,5.8,5.8c3.3,0,5.8-2.5,5.8-5.8S340.1,71.4,336.8,71.4z M272.9,73
	c0,2.5-1.7,4.2-4.2,4.2c-2.5,0-4.1-1.7-4.1-4.2c0-0.3,0-0.5,0.1-0.8c0.3-2,1.8-3.3,4-3.3c2.2,0,3.8,1.3,4.1,3.3
	C272.9,72.5,272.9,72.7,272.9,73z"/>
<path class="st4" d="M57,25c0,13.8-23,39-25,39S7,38.8,7,25S18.2,0,32,0S57,11.2,57,25z M32,8c-9.4,0-17,7.6-17,17s7.6,17,17,17
	s17-7.6,17-17S41.4,8,32,8z"/>
</svg>
