<?xml version="1.0" encoding="utf-8"?>
<!-- Generator: Adobe Illustrator 22.0.1, SVG Export Plug-In . SVG Version: 6.00 Build 0)  -->
<svg version="1.1" id="Capa_1" xmlns="http://www.w3.org/2000/svg" xmlns:xlink="http://www.w3.org/1999/xlink" x="0px" y="0px"
	 viewBox="0 0 64 64" style="enable-background:new 0 0 64 64;" xml:space="preserve">
<style type="text/css">
	.st0{fill:#DEECF1;}
	.st1{fill:#FFDA2D;}
	.st2{fill:#7C8388;}
	.st3{fill:#174290;}
</style>
<g>
	<path class="st0" d="M21.4,26.5c-0.5,0-0.9,0.4-0.9,0.9v2.3c0,0.5,0.4,0.9,0.9,0.9h12v-4.2C33.1,26.5,21.5,26.5,21.4,26.5z"/>
	<path class="st1" d="M36.2,19.4h-1.9c-0.5,0-0.9,0.4-0.9,0.9v10.3h9.2c0.5,0,0.9-0.4,0.9-0.9c0-0.9,0-3.6,0-4.7L36.2,19.4z"/>
	<path class="st0" d="M43.5,25L43.5,25l-7.3,0v-5.6h3.9c0.4,0,0.7,0.2,0.8,0.5L43.5,25z"/>
	<g>
		<path class="st2" d="M38.3,29.2c1.2,0,2.1,0.9,2.1,2.1c0,1.2-0.9,2.1-2.1,2.1s-2.1-0.9-2.1-2.1C36.2,30.1,37.2,29.2,38.3,29.2z"/>
		<path class="st2" d="M29.6,16.6l3.8,9.8h-3l-2.7-7h-5.8v-2.8H29.6z"/>
		<path class="st2" d="M24,29.2c1.2,0,2.1,0.9,2.1,2.1c0,1.2-0.9,2.1-2.1,2.1s-2.1-0.9-2.1-2.1C21.9,30.1,22.8,29.2,24,29.2z"/>
	</g>
	<path d="M41.4,19.7c-0.2-0.5-0.7-0.8-1.3-0.8c-1.2,0-4.4,0-5.8,0c-0.8,0-1.4,0.6-1.4,1.4v3.6l-2.9-7.5c-0.1-0.2-0.2-0.3-0.4-0.3
		h-7.7c-0.3,0-0.5,0.2-0.5,0.5v4.7c-0.8,0.2-1.4,0.9-1.4,1.8c0,1,0.8,1.9,1.9,1.9c1,0,1.9-0.8,1.9-1.9c0-0.3-0.2-0.5-0.5-0.5
		s-0.5,0.2-0.5,0.5c0,0.5-0.4,0.9-0.9,0.9s-0.9-0.4-0.9-0.9c0-0.5,0.4-0.9,0.9-0.9c0.3,0,0.5-0.2,0.5-0.5v-1.9h5l2.3,6.1h-8.3
		c-0.8,0-1.4,0.6-1.4,1.4v2.3c0,0.8,0.6,1.4,1.4,1.4h0c0,0,0,0.1,0,0.1c0,1.4,1.2,2.6,2.6,2.6s2.6-1.2,2.6-2.6c0,0,0-0.1,0-0.1H28
		c0.3,0,0.5-0.2,0.5-0.5s-0.2-0.5-0.5-0.5h-1.7c-0.4-0.9-1.3-1.5-2.3-1.5c-1,0-1.9,0.6-2.3,1.5h-0.2c-0.3,0-0.5-0.2-0.5-0.5v-2.3
		c0-0.3,0.2-0.5,0.5-0.5h11.5v3.3h-0.7c-0.3,0-0.5,0.2-0.5,0.5s0.2,0.5,0.5,0.5h3.5c0,0,0,0.1,0,0.1c0,1.4,1.2,2.6,2.6,2.6
		s2.6-1.2,2.6-2.6c0,0,0-0.1,0-0.1c0,0,1.7,0,1.7,0c0.8,0,1.4-0.6,1.4-1.4V25c0-0.1,0-0.1,0-0.2L41.4,19.7z M24,29.6
		c0.9,0,1.6,0.7,1.6,1.6c0,0.9-0.7,1.6-1.6,1.6s-1.6-0.7-1.6-1.6C22.3,30.4,23.1,29.6,24,29.6z M30.7,26l-2.6-6.7
		c-0.1-0.2-0.2-0.3-0.4-0.3h-5.3v-1.9h7l3.4,8.9H30.7z M40.1,19.9C40.1,19.9,40.1,19.9,40.1,19.9c0.2,0,0.3,0.1,0.4,0.2l2.2,4.4
		h-6.1v-4.7H40.1z M38.3,32.9c-0.9,0-1.6-0.7-1.6-1.6c0-0.9,0.8-1.6,1.6-1.6c0.9,0,1.6,0.7,1.6,1.6C40,32.2,39.2,32.9,38.3,32.9z
		 M42.6,30.2h-1.9c-0.4-0.9-1.3-1.5-2.3-1.5c-1,0-1.9,0.6-2.3,1.5h-2.1c0-1.2,0-9.7,0-9.8c0-0.3,0.2-0.5,0.5-0.5c0,0,1.4,0,1.4,0V25
		c0,0.3,0.2,0.5,0.5,0.5h6.8v1.9h-0.9c-0.3,0-0.5,0.2-0.5,0.5s0.2,0.5,0.5,0.5h0.9v1.4C43.1,30,42.9,30.2,42.6,30.2z"/>
	<path d="M24,32c0.4,0,0.7-0.3,0.7-0.7s-0.3-0.7-0.7-0.7s-0.7,0.3-0.7,0.7S23.6,32,24,32z"/>
	<path d="M38.3,30.6c-0.4,0-0.7,0.3-0.7,0.7s0.3,0.7,0.7,0.7s0.7-0.3,0.7-0.7S38.7,30.6,38.3,30.6z"/>
	<path d="M30.6,30.7c0,0.3-0.2,0.5-0.5,0.5s-0.5-0.2-0.5-0.5s0.2-0.5,0.5-0.5S30.6,30.4,30.6,30.7z"/>
</g>
<path class="st3" d="M57,25c0,13.8-23,39-25,39S7,38.8,7,25S18.2,0,32,0S57,11.2,57,25z M32,8c-9.4,0-17,7.6-17,17s7.6,17,17,17
	s17-7.6,17-17S41.4,8,32,8z"/>
</svg>
