<svg xmlns="http://www.w3.org/2000/svg" viewBox="0 0 480.17 487.64"><defs><style>.cls-1{fill:#c9e8fb;}.cls-2{fill:#e6e9ef;}.cls-3{fill:#e9eef9;}.cls-4{fill:#fed05e;}.cls-5{fill:#344a7f;}.cls-6{fill:#8da6d6;}.cls-7{fill:#fff;}.cls-8{fill:#fab64d;}.cls-9{fill:#0f265c;}</style></defs><title>login</title><g id="Capa_2" data-name="Capa 2"><g id="Capa_1-2" data-name="Capa 1"><circle class="cls-1" cx="195.86" cy="195.86" r="195.86"/><path class="cls-2" d="M277,342.84c-.4,0-.8.4-1.6.4-.4,0-.8-.4-1.6-.4Z"/><path class="cls-3" d="M480.17,383.64a253.91,253.91,0,0,1-204.8,104c-84,0-158.4-40.8-204.8-104,36-38.4,84.8-58.8,125.6-69.2-3.6,29.2,11.6,68.4,12,67.2,15.2-35.2,66.8-38.4,66.8-38.4s51.6,2.8,67.2,38.4c.4.8,15.6-38,12-67.2C395.37,324.84,444.17,345.24,480.17,383.64Z"/><path class="cls-4" d="M338.57,287.64h0c0,5.2-3.2,32.8-61.6,55.2h-3.2c-58.4-22.4-61.6-50-61.6-55.2h0a80.57,80.57,0,0,1,7.2-30.4c16,18,35.2,30,56,30,20.4,0,40-11.6,56-30C335.77,266.84,338.57,277.24,338.57,287.64Z"/><path class="cls-5" d="M310.17,352l-12.8,25.6h-44L240.57,352a119.45,119.45,0,0,1,34.8-8.8A116.64,116.64,0,0,1,310.17,352Z"/><path class="cls-6" d="M239.77,485.24a263.29,263.29,0,0,0,36,2.4,272.1,272.1,0,0,0,36-2.4l-14-107.2h-44Z"/><path class="cls-7" d="M338.57,286.84s2.8,32-63.2,56.4c0,0,51.6,2.8,67.2,38.4C343,383.24,373,305.64,338.57,286.84Z"/><path class="cls-7" d="M212.17,286.84c-34,18.8-4.4,96-3.6,94.8,15.2-35.2,67.2-38.4,67.2-38.4C209.37,318.84,212.17,286.84,212.17,286.84Z"/><path class="cls-8" d="M334.57,265.24c-16.8,18-36.8,29.6-59.2,29.6s-42.4-11.6-59.2-29.6a47.67,47.67,0,0,1,3.2-8c16,18,35.2,30,56,30s40-11.6,56-30A47.67,47.67,0,0,1,334.57,265.24Z"/><path class="cls-4" d="M384.57,204c-8.4,14-21.2,22.4-30.8,20.8-19.2,35.6-47.2,62-78.4,62s-59.2-26.8-78.4-62c-9.6,1.2-22.4-6.8-30.8-20.8-10-16.4-10.4-34.4-.8-40.4A12.51,12.51,0,0,1,173,162a96.49,96.49,0,0,0,15.2,26.4c-9.2-50.8,28.4-56.4,22-105.2,0,0,23.6,52.4,91.2,15.6l-5.2,10c94.4-21.2,62.8,90,62,92.8a126.09,126.09,0,0,0,21.6-39.6,9.8,9.8,0,0,1,4.8,1.6C395,169.24,394.57,187.64,384.57,204Z"/><path class="cls-9" d="M329.77,30.44c7.6-.8,20,6,20,6-34-38.8-89.6-14-89.6-14C279,6.44,295.77,8,295.77,8c-79.6-12-93.2,35.6-93.2,35.6C199,38,199,30,199.37,26c-5.6,9.6.4,28.8.4,28.8-5.6-14-25.2-11.6-25.2-11.6,16.8,2.8,19.6,13.2,19.6,13.2-42,15.6-34.8,59.2-34.8,59.2l10-12c-12.4,47.6,19.2,84.4,19.2,84.4-9.2-50.8,28.4-56.4,22-105.2,0,0,23.6,52.4,91.2,15.6l-5.2,10c95.6-21.6,62,93.2,62,93.2,34-43.2,28.8-87.6,28.8-87.6l4,16C402.17,58,329.77,30.44,329.77,30.44Z"/></g></g></svg>