<svg xmlns="http://www.w3.org/2000/svg" viewBox="0 0 512 512"><defs><style>.cls-1{fill:#ff8e31;}.cls-2{fill:#ed7425;}.cls-3{fill:#174290;}.cls-4{fill:#cee2f2;}.cls-5{fill:#f2f9ff;}</style></defs><title>refaction</title><g id="Capa_2" data-name="Capa 2"><g id="Layer_1" data-name="Layer 1"><circle class="cls-1" cx="256" cy="256" r="256"/><path class="cls-2" d="M290.9,146.42l-15-15L268,135.36l-20.14-20.14-20.42-5.48-9.12,13.61.09.05a59.93,59.93,0,0,0-7.19-.28c-.94,0-1.89,0-2.84,0l-13.42-13.42-20.43,5.48-1.08,16.36a85.09,85.09,0,0,0-12.34,7.09l-14.7-7.23-14.94,15,7.23,14.66a87,87,0,0,0-7.14,12.39l-16.31,1.08-5.48,20.38,13.44,13.44c0,.94-.11,1.89-.11,2.82,0,2.36.09,4.83.33,7.19l-.05,0-13.61,9.08,5.43,20.42L135.34,268l-3.9,7.91v0l14.94,14.94h.05l203.3,203.32A256.69,256.69,0,0,0,494.22,349.74Z"/><path class="cls-3" d="M290.91,146.38l-15-14.95-14.69,7.21a91.11,91.11,0,0,0-12.34-7.1l-1.09-16.35-20.4-5.45-9.11,13.6.07,0c-2.4-.21-4.8-.32-7.2-.3s-4.83.1-7.22.29l.08,0-9.11-13.6-20.41,5.45-1.1,16.37a86.14,86.14,0,0,0-12.33,7.1l-14.7-7.22-14.94,14.95,7.21,14.69a91.91,91.91,0,0,0-7.12,12.36l-16.33,1.07-5.48,20.41,13.6,9.11c-.14,2.35-.27,4.76-.25,7.12s.1,4.83.31,7.23l-.06-.08-13.6,9.1,5.46,20.41,16.35,1.1a91.41,91.41,0,0,0,7.12,12.34l-7.21,14.69,14.94,14.95,14.69-7.22a90.57,90.57,0,0,0,12.33,7.12l1.11,16.34,20.41,5.48L204,299c2.37.14,4.77.26,7.15.24s4.81-.1,7.19-.27l9,13.63,20.42-5.47,1.09-16.32a93.6,93.6,0,0,0,12.33-7.16l14.69,7.23,15-14.95-7.24-14.7a90.13,90.13,0,0,0,7.11-12.34l16.36-1.09,5.46-20.41L299,218.3l0,.07c.18-2.39.32-4.8.28-7.22s-.1-4.77-.24-7.12l13.59-9.11-5.47-20.41-16.37-1.11a85.1,85.1,0,0,0-7.1-12.32Zm-33.49,111a65.4,65.4,0,1,1,0-92.5A65.41,65.41,0,0,1,257.42,257.41Z"/><polygon class="cls-4" points="329.89 360.51 360.52 329.87 261.37 230.73 230.75 261.37 329.89 360.51"/><path class="cls-5" d="M194.84,159.52l37.91,37.9-7.46,27.86-27.86,7.46-37.91-37.9a54.18,54.18,0,1,0,35.32-35.32Z"/><path class="cls-5" d="M338.27,338.26c-14.83,14.8-15,38.61-.41,53.19s38.37,14.39,53.19-.42,15-38.62.39-53.2S353.08,323.46,338.27,338.26ZM390.46,354l-4,10.69,4,10.69-10.4,4.73-4.72,10.39-10.68-4-10.69,4-4.73-10.39-10.4-4.72,4-10.69-4-10.69,10.4-4.71,4.73-10.4,10.69,4,10.68-4,4.72,10.4Z"/></g></g></svg>